<svg xmlns="http://www.w3.org/2000/svg" viewBox="0 0 32 32" role="img">
  <title>Café Samsara</title>
  <!-- Cup body -->
  <path d="M4 8h18c0 0 0 14-9 20C4 22 4 8 4 8z" fill="#2d5a47"/>
  <!-- Cup handle -->
  <path d="M22 11c5 0 7 3 7 7s-2 7-7 7" fill="none" stroke="#2d5a47" stroke-width="2" stroke-linecap="round"/>
  <!-- Steam -->
  <path d="M9 3c0-2 2-3 2-1s-2 3-2 1" fill="none" stroke="#2d5a47" stroke-width="1" stroke-linecap="round"/>
  <path d="M13 2c0-2 2-3 2-1s-2 3-2 1" fill="none" stroke="#2d5a47" stroke-width="1" stroke-linecap="round"/>
  <path d="M17 3c0-2 2-3 2-1s-2 3-2 1" fill="none" stroke="#2d5a47" stroke-width="1" stroke-linecap="round"/>
  <!-- Leaf -->
  <ellipse cx="13" cy="18" rx="5" ry="2.5" fill="#3d7a5f" transform="rotate(-30 13 18)"/>
</svg>
